<svg xmlns="http://www.w3.org/2000/svg" width="1600" height="1000" viewBox="0 0 1600 1000" role="img" aria-labelledby="title desc">
  <title id="title">按 YD-ESP32-S3 引脚图绘制的 SCD41 与 SPS30 杜邦线接线图</title>
  <desc id="desc">开发板按 USB 朝下的引脚图方向绘制，SCD41 接 3V3、GPIO8、GPIO9 与 GND；SPS30 接 5V0、GPIO17、GPIO18、GND 与 SEL 到 GND。</desc>
  <style>
    text {
      font-family: "PingFang SC", "Microsoft YaHei", "Noto Sans CJK SC", sans-serif;
      fill: #1f2937;
    }
    .title { font-size: 34px; font-weight: 700; }
    .subtitle { font-size: 19px; fill: #475569; }
    .section { font-size: 24px; font-weight: 700; }
    .label { font-size: 20px; font-weight: 600; }
    .pintext { font-size: 17px; fill: #64748b; }
    .pintext-used-gpio { font-size: 18px; font-weight: 700; fill: #15803d; }
    .pintext-used-power { font-size: 18px; font-weight: 700; fill: #b91c1c; }
    .pintext-used-gnd { font-size: 18px; font-weight: 700; fill: #111827; }
    .small { font-size: 16px; fill: #475569; }
    .tiny { font-size: 15px; fill: #64748b; }
    .board { fill: #3b3b3b; stroke: #111827; stroke-width: 3; }
    .module { fill: #c9c9c9; stroke: #666; stroke-width: 2; }
    .sensor-a { fill: #e6f6ff; stroke: #176087; stroke-width: 3; }
    .sensor-b { fill: #eef8ea; stroke: #2d6a32; stroke-width: 3; }
    .pin { fill: #facc15; stroke: #854d0e; stroke-width: 2; }
    .wire { fill: none; stroke-width: 6; stroke-linecap: round; stroke-linejoin: round; }
    .note { fill: #f8fafc; stroke: #cbd5e1; stroke-width: 2; }
  </style>

  <rect x="0" y="0" width="1600" height="1000" fill="#fffdf8"/>

  <text x="800" y="54" text-anchor="middle" class="title">按 YD-ESP32-S3 引脚图位置绘制的杜邦线接线图</text>
  <text x="800" y="84" text-anchor="middle" class="subtitle">方向按你发来的图：天线在上，USB 在下；连接仍然与当前默认 GPIO 完全一致</text>

  <rect x="690" y="110" width="260" height="720" rx="22" class="board"/>
  <rect x="730" y="145" width="180" height="290" rx="12" class="module"/>
  <rect x="760" y="110" width="120" height="36" rx="4" fill="#4b4b4b"/>
  <rect x="775" y="120" width="18" height="22" fill="#3b3b3b"/>
  <rect x="826" y="120" width="18" height="22" fill="#3b3b3b"/>
  <rect x="877" y="120" width="18" height="22" fill="#3b3b3b"/>
  <text x="820" y="195" text-anchor="middle" class="label" fill="#374151">ESP32-S3-WROOM</text>
  <circle cx="820" cy="290" r="48" fill="#9a9a9a"/>
  <path d="M 802 316 C 775 304, 780 263, 817 264 C 844 266, 851 289, 832 301 C 821 308, 805 303, 800 289" fill="none" stroke="#6b7280" stroke-width="6"/>
  <rect x="790" y="470" width="60" height="28" rx="6" fill="#f8fafc" stroke="#9ca3af" stroke-width="2"/>
  <text x="820" y="489" text-anchor="middle" class="small">RESET</text>
  <rect x="790" y="555" width="60" height="28" rx="6" fill="#f8fafc" stroke="#9ca3af" stroke-width="2"/>
  <text x="820" y="574" text-anchor="middle" class="small">BOOT</text>
  <rect x="735" y="706" width="80" height="72" fill="#bcb7e6"/>
  <rect x="825" y="706" width="80" height="72" fill="#bcb7e6"/>
  <text x="775" y="690" text-anchor="middle" class="small">USB</text>
  <text x="865" y="690" text-anchor="middle" class="small">UART</text>
  <text x="820" y="830" text-anchor="middle" class="small">按你提供的引脚图方向绘制</text>

  <circle cx="690" cy="190" r="8" class="pin"/>
  <circle cx="690" cy="218" r="8" class="pin"/>
  <circle cx="690" cy="246" r="8" class="pin"/>
  <circle cx="690" cy="274" r="8" class="pin"/>
  <circle cx="690" cy="302" r="8" class="pin"/>
  <circle cx="690" cy="330" r="8" class="pin"/>
  <circle cx="690" cy="358" r="8" class="pin"/>
  <circle cx="690" cy="386" r="8" class="pin"/>
  <circle cx="690" cy="414" r="8" class="pin"/>
  <circle cx="690" cy="442" r="8" class="pin"/>
  <circle cx="690" cy="470" r="8" class="pin"/>
  <circle cx="690" cy="498" r="8" class="pin"/>
  <circle cx="690" cy="526" r="8" class="pin"/>
  <circle cx="690" cy="554" r="8" class="pin"/>
  <circle cx="690" cy="582" r="8" class="pin"/>
  <circle cx="690" cy="610" r="8" class="pin"/>
  <circle cx="690" cy="638" r="8" class="pin"/>
  <circle cx="690" cy="666" r="8" class="pin"/>
  <circle cx="690" cy="694" r="8" class="pin"/>
  <circle cx="690" cy="722" r="8" class="pin"/>
  <circle cx="690" cy="750" r="8" class="pin"/>
  <circle cx="690" cy="778" r="8" class="pin"/>

  <circle cx="950" cy="190" r="8" class="pin"/>
  <circle cx="950" cy="218" r="8" class="pin"/>
  <circle cx="950" cy="246" r="8" class="pin"/>
  <circle cx="950" cy="274" r="8" class="pin"/>
  <circle cx="950" cy="302" r="8" class="pin"/>
  <circle cx="950" cy="330" r="8" class="pin"/>
  <circle cx="950" cy="358" r="8" class="pin"/>
  <circle cx="950" cy="386" r="8" class="pin"/>
  <circle cx="950" cy="414" r="8" class="pin"/>
  <circle cx="950" cy="442" r="8" class="pin"/>
  <circle cx="950" cy="470" r="8" class="pin"/>
  <circle cx="950" cy="498" r="8" class="pin"/>
  <circle cx="950" cy="526" r="8" class="pin"/>
  <circle cx="950" cy="554" r="8" class="pin"/>
  <circle cx="950" cy="582" r="8" class="pin"/>
  <circle cx="950" cy="610" r="8" class="pin"/>
  <circle cx="950" cy="638" r="8" class="pin"/>
  <circle cx="950" cy="666" r="8" class="pin"/>
  <circle cx="950" cy="694" r="8" class="pin"/>
  <circle cx="950" cy="722" r="8" class="pin"/>
  <circle cx="950" cy="750" r="8" class="pin"/>
  <circle cx="950" cy="778" r="8" class="pin"/>

  <line x1="682" y1="190" x2="620" y2="190" stroke="#9ca3af" stroke-width="2"/>
  <line x1="682" y1="218" x2="620" y2="218" stroke="#9ca3af" stroke-width="2"/>
  <line x1="682" y1="246" x2="620" y2="246" stroke="#9ca3af" stroke-width="2"/>
  <line x1="682" y1="274" x2="620" y2="274" stroke="#9ca3af" stroke-width="2"/>
  <line x1="682" y1="302" x2="620" y2="302" stroke="#9ca3af" stroke-width="2"/>
  <line x1="682" y1="330" x2="620" y2="330" stroke="#9ca3af" stroke-width="2"/>
  <line x1="682" y1="358" x2="620" y2="358" stroke="#9ca3af" stroke-width="2"/>
  <line x1="682" y1="386" x2="620" y2="386" stroke="#9ca3af" stroke-width="2"/>
  <line x1="682" y1="414" x2="620" y2="414" stroke="#9ca3af" stroke-width="2"/>
  <line x1="682" y1="442" x2="620" y2="442" stroke="#9ca3af" stroke-width="2"/>
  <line x1="682" y1="470" x2="620" y2="470" stroke="#9ca3af" stroke-width="2"/>
  <line x1="682" y1="498" x2="620" y2="498" stroke="#9ca3af" stroke-width="2"/>
  <line x1="682" y1="526" x2="620" y2="526" stroke="#9ca3af" stroke-width="2"/>
  <line x1="682" y1="554" x2="620" y2="554" stroke="#9ca3af" stroke-width="2"/>
  <line x1="682" y1="582" x2="620" y2="582" stroke="#9ca3af" stroke-width="2"/>
  <line x1="682" y1="610" x2="620" y2="610" stroke="#9ca3af" stroke-width="2"/>
  <line x1="682" y1="638" x2="620" y2="638" stroke="#9ca3af" stroke-width="2"/>
  <line x1="682" y1="666" x2="620" y2="666" stroke="#9ca3af" stroke-width="2"/>
  <line x1="682" y1="694" x2="620" y2="694" stroke="#9ca3af" stroke-width="2"/>
  <line x1="682" y1="722" x2="620" y2="722" stroke="#9ca3af" stroke-width="2"/>
  <line x1="682" y1="750" x2="620" y2="750" stroke="#9ca3af" stroke-width="2"/>
  <line x1="682" y1="778" x2="620" y2="778" stroke="#9ca3af" stroke-width="2"/>

  <line x1="958" y1="190" x2="1020" y2="190" stroke="#9ca3af" stroke-width="2"/>
  <line x1="958" y1="218" x2="1020" y2="218" stroke="#9ca3af" stroke-width="2"/>
  <line x1="958" y1="246" x2="1020" y2="246" stroke="#9ca3af" stroke-width="2"/>
  <line x1="958" y1="274" x2="1020" y2="274" stroke="#9ca3af" stroke-width="2"/>
  <line x1="958" y1="302" x2="1020" y2="302" stroke="#9ca3af" stroke-width="2"/>
  <line x1="958" y1="330" x2="1020" y2="330" stroke="#9ca3af" stroke-width="2"/>
  <line x1="958" y1="358" x2="1020" y2="358" stroke="#9ca3af" stroke-width="2"/>
  <line x1="958" y1="386" x2="1020" y2="386" stroke="#9ca3af" stroke-width="2"/>
  <line x1="958" y1="414" x2="1020" y2="414" stroke="#9ca3af" stroke-width="2"/>
  <line x1="958" y1="442" x2="1020" y2="442" stroke="#9ca3af" stroke-width="2"/>
  <line x1="958" y1="470" x2="1020" y2="470" stroke="#9ca3af" stroke-width="2"/>
  <line x1="958" y1="498" x2="1020" y2="498" stroke="#9ca3af" stroke-width="2"/>
  <line x1="958" y1="526" x2="1020" y2="526" stroke="#9ca3af" stroke-width="2"/>
  <line x1="958" y1="554" x2="1020" y2="554" stroke="#9ca3af" stroke-width="2"/>
  <line x1="958" y1="582" x2="1020" y2="582" stroke="#9ca3af" stroke-width="2"/>
  <line x1="958" y1="610" x2="1020" y2="610" stroke="#9ca3af" stroke-width="2"/>
  <line x1="958" y1="638" x2="1020" y2="638" stroke="#9ca3af" stroke-width="2"/>
  <line x1="958" y1="666" x2="1020" y2="666" stroke="#9ca3af" stroke-width="2"/>
  <line x1="958" y1="694" x2="1020" y2="694" stroke="#9ca3af" stroke-width="2"/>
  <line x1="958" y1="722" x2="1020" y2="722" stroke="#9ca3af" stroke-width="2"/>
  <line x1="958" y1="750" x2="1020" y2="750" stroke="#9ca3af" stroke-width="2"/>
  <line x1="958" y1="778" x2="1020" y2="778" stroke="#9ca3af" stroke-width="2"/>

  <text x="610" y="196" text-anchor="end" class="pintext-used-power">3V3</text>
  <text x="610" y="224" text-anchor="end" class="pintext-used-power">3V3</text>
  <text x="610" y="252" text-anchor="end" class="pintext">RST</text>
  <text x="610" y="280" text-anchor="end" class="pintext">GPIO4</text>
  <text x="610" y="308" text-anchor="end" class="pintext">GPIO5</text>
  <text x="610" y="336" text-anchor="end" class="pintext">GPIO6</text>
  <text x="610" y="364" text-anchor="end" class="pintext">GPIO7</text>
  <text x="610" y="392" text-anchor="end" class="pintext">GPIO15</text>
  <text x="610" y="420" text-anchor="end" class="pintext">GPIO16</text>
  <text x="610" y="448" text-anchor="end" class="pintext-used-gpio">GPIO17</text>
  <text x="610" y="476" text-anchor="end" class="pintext-used-gpio">GPIO18</text>
  <text x="610" y="504" text-anchor="end" class="pintext-used-gpio">GPIO8</text>
  <text x="610" y="532" text-anchor="end" class="pintext">GPIO3</text>
  <text x="610" y="560" text-anchor="end" class="pintext">GPIO46</text>
  <text x="610" y="588" text-anchor="end" class="pintext-used-gpio">GPIO9</text>
  <text x="610" y="616" text-anchor="end" class="pintext">GPIO10</text>
  <text x="610" y="644" text-anchor="end" class="pintext">GPIO11</text>
  <text x="610" y="672" text-anchor="end" class="pintext">GPIO12</text>
  <text x="610" y="700" text-anchor="end" class="pintext">GPIO13</text>
  <text x="610" y="728" text-anchor="end" class="pintext">GPIO14</text>
  <text x="610" y="756" text-anchor="end" class="pintext-used-power">5V0</text>
  <text x="610" y="784" text-anchor="end" class="pintext-used-gnd">GND</text>

  <text x="1030" y="196" class="pintext-used-gnd">GND</text>
  <text x="1030" y="224" class="pintext">GPIO43</text>
  <text x="1030" y="252" class="pintext">GPIO44</text>
  <text x="1030" y="280" class="pintext">GPIO1</text>
  <text x="1030" y="308" class="pintext">GPIO2</text>
  <text x="1030" y="336" class="pintext">GPIO42</text>
  <text x="1030" y="364" class="pintext">GPIO41</text>
  <text x="1030" y="392" class="pintext">GPIO40</text>
  <text x="1030" y="420" class="pintext">GPIO39</text>
  <text x="1030" y="448" class="pintext">GPIO38</text>
  <text x="1030" y="476" class="pintext">GPIO37</text>
  <text x="1030" y="504" class="pintext">GPIO36</text>
  <text x="1030" y="532" class="pintext">GPIO35</text>
  <text x="1030" y="560" class="pintext">GPIO0</text>
  <text x="1030" y="588" class="pintext">GPIO45</text>
  <text x="1030" y="616" class="pintext">GPIO48</text>
  <text x="1030" y="644" class="pintext">GPIO47</text>
  <text x="1030" y="672" class="pintext">GPIO21</text>
  <text x="1030" y="700" class="pintext">GPIO20</text>
  <text x="1030" y="728" class="pintext">GPIO19</text>
  <text x="1030" y="756" class="pintext-used-gnd">GND</text>
  <text x="1030" y="784" class="pintext-used-gnd">GND</text>

  <rect x="60" y="120" width="420" height="220" rx="20" class="sensor-a"/>
  <text x="270" y="170" text-anchor="middle" class="section">SCD41</text>
  <text x="270" y="202" text-anchor="middle" class="small">模块自上而下：SDA / SCL / VDD / GND</text>
  <text x="270" y="224" text-anchor="middle" class="small">对应 GPIO8 / GPIO9 / 3V3 / GND</text>
  <rect x="125" y="236" width="210" height="60" rx="14" fill="#ffffff" stroke="#176087" stroke-width="2"/>
  <text x="230" y="274" text-anchor="middle" class="label">CO2 / 温湿度模块</text>

  <circle cx="455" cy="220" r="8" fill="#fff" stroke="#176087" stroke-width="2"/>
  <circle cx="455" cy="250" r="8" fill="#fff" stroke="#176087" stroke-width="2"/>
  <circle cx="455" cy="280" r="8" fill="#fff" stroke="#176087" stroke-width="2"/>
  <circle cx="455" cy="310" r="8" fill="#fff" stroke="#176087" stroke-width="2"/>
  <text x="430" y="226" text-anchor="end" class="label">SDA</text>
  <text x="430" y="256" text-anchor="end" class="label">SCL</text>
  <text x="430" y="286" text-anchor="end" class="label">VDD</text>
  <text x="430" y="316" text-anchor="end" class="label">GND</text>

  <path d="M 463 220 C 560 220, 620 498, 682 498" class="wire" stroke="#eab308"/>
  <path d="M 463 250 C 560 250, 620 582, 682 582" class="wire" stroke="#2563eb"/>
  <path d="M 463 280 C 560 280, 600 190, 682 190" class="wire" stroke="#dc2626"/>
  <path d="M 463 310 C 580 310, 860 190, 942 190" class="wire" stroke="#111827"/>

  <rect x="40" y="540" width="460" height="270" rx="20" class="sensor-b"/>
  <text x="270" y="590" text-anchor="middle" class="section">SPS30</text>
  <text x="270" y="622" text-anchor="middle" class="small">原厂 5Pin：Pin1 -&gt; Pin5 = VDD / SDA / SCL / SEL / GND</text>
  <text x="270" y="644" text-anchor="middle" class="small">对应 5V0 / GPIO17 / GPIO18 / GND / GND</text>
  <rect x="118" y="666" width="235" height="60" rx="14" fill="#ffffff" stroke="#2d6a32" stroke-width="2"/>
  <text x="236" y="704" text-anchor="middle" class="label">颗粒物模块</text>

  <circle cx="470" cy="620" r="8" fill="#fff" stroke="#2d6a32" stroke-width="2"/>
  <circle cx="470" cy="652" r="8" fill="#fff" stroke="#2d6a32" stroke-width="2"/>
  <circle cx="470" cy="684" r="8" fill="#fff" stroke="#2d6a32" stroke-width="2"/>
  <circle cx="470" cy="716" r="8" fill="#fff" stroke="#2d6a32" stroke-width="2"/>
  <circle cx="470" cy="748" r="8" fill="#fff" stroke="#2d6a32" stroke-width="2"/>
  <text x="445" y="626" text-anchor="end" class="label">VDD</text>
  <text x="445" y="658" text-anchor="end" class="label">SDA</text>
  <text x="445" y="690" text-anchor="end" class="label">SCL</text>
  <text x="445" y="722" text-anchor="end" class="label">SEL</text>
  <text x="445" y="754" text-anchor="end" class="label">GND</text>

  <path d="M 478 620 C 575 620, 615 750, 682 750" class="wire" stroke="#f97316"/>
  <path d="M 478 652 C 570 652, 620 442, 682 442" class="wire" stroke="#16a34a"/>
  <path d="M 478 684 C 570 684, 620 470, 682 470" class="wire" stroke="#94a3b8"/>
  <path d="M 478 716 C 615 716, 860 778, 942 778" class="wire" stroke="#6b7280"/>
  <path d="M 478 748 C 615 748, 860 750, 942 750" class="wire" stroke="#111827"/>

  <rect x="1080" y="120" width="430" height="195" rx="18" class="note"/>
  <text x="1110" y="160" class="section">这张图里实际用了哪些孔位</text>
  <text x="1110" y="198" class="small">SCD41：左侧 `3V3`、`GPIO8`、`GPIO9`</text>
  <text x="1110" y="224" class="small">SCD41 GND：右上 `GND`</text>
  <text x="1110" y="250" class="small">SPS30：左侧 `GPIO17`、`GPIO18`、`5V0`</text>
  <text x="1110" y="276" class="small">SPS30 的 `GND` 和 `SEL`：右下两个 `GND`</text>
  <text x="1110" y="300" class="tiny">`SEL` 不是接 GPIO，而是直接拉到 `GND` 选择 I2C 模式</text>

  <rect x="1080" y="335" width="430" height="170" rx="18" class="note"/>
  <text x="1110" y="375" class="section">线色建议</text>
  <text x="1110" y="411" class="small">黑 = GND，红 = 3V3，橙 = 5V0</text>
  <text x="1110" y="437" class="small">黄 / 蓝 = SCD41 SDA / SCL</text>
  <text x="1110" y="463" class="small">绿 / 浅灰 = SPS30 SDA / SCL，灰 = SEL→GND</text>
  <text x="1110" y="487" class="tiny">颜色只是建议，真正关键是别把 `SDA/SCL` 上拉到 `5V`</text>

  <rect x="1080" y="530" width="430" height="170" rx="18" class="note"/>
  <text x="1110" y="570" class="section">为什么按这张引脚图画会更好接</text>
  <text x="1110" y="608" class="small">1. 可以直接对着板子丝印找 `GPIO17 / GPIO18 / GPIO8 / GPIO9`</text>
  <text x="1110" y="636" class="small">2. `5V0` 和底部 `GND` 位置也一起标出来了</text>
  <text x="1110" y="664" class="small">3. 这张图与 README 默认配置完全一致，不需要改固件 GPIO</text>

  <rect x="1080" y="725" width="430" height="120" rx="18" class="note"/>
  <text x="1110" y="765" class="section">补充</text>
  <text x="1110" y="797" class="small">所有 `GND` 在板内互通。</text>
  <text x="1110" y="823" class="small">如果你实际插线更顺，换另一个 `GND` 孔也可以。</text>
</svg>
